<svg xmlns="http://www.w3.org/2000/svg" viewBox="19.999999999999986 103.90303631341712 534.9974267173205 367.1939273731657"><rect height="100%" width="100%" x="19.999999999999986" y="103.90303631341712" fill="rgba(8, 9, 29, 1)"/> <g transform="rotate(0 186.62553969764005 287.5)"><svg xmlns="http://www.w3.org/2000/svg" xmlns:xlink="http://www.w3.org/1999/xlink" viewBox="-0.006413816008716822 0.08900416642427444 101.9962387084961 119.91099548339844" height="227.19392737316576" width="193.25107939528013" y="173.90303631341712" x="89.99999999999999" preserveAspectRatio="xMinYMin" style="overflow: visible;"><linearGradient id="New_Gradient_Swatch_copy" x1="15.16" y1="-15.93" x2="56.13" y2="100.04" gradientUnits="userSpaceOnUse" style=""><stop offset="0" stop-color="#fd5668"></stop><stop offset="0.44" stop-color="#a73ca0"></stop><stop offset="0.82" stop-color="#6327cd"></stop><stop offset="0.99" stop-color="#481fde"></stop></linearGradient><linearGradient id="New_Gradient_Swatch_copy-2" x1="17.17" y1="-16.64" x2="58.14" y2="99.33" xlink:href="#New_Gradient_Swatch_copy" style=""></linearGradient><linearGradient id="New_Gradient_Swatch_copy-3" x1="19.04" y1="-17.3" x2="60.01" y2="98.67" xlink:href="#New_Gradient_Swatch_copy" style=""></linearGradient><linearGradient id="New_Gradient_Swatch_copy-4" x1="15.46" y1="-16.04" x2="56.43" y2="99.94" xlink:href="#New_Gradient_Swatch_copy" style=""></linearGradient><linearGradient id="New_Gradient_Swatch_copy-5" x1="12.46" y1="-14.97" x2="53.43" y2="101" xlink:href="#New_Gradient_Swatch_copy" style=""></linearGradient><linearGradient id="New_Gradient_Swatch_copy-6" x1="27.55" y1="-20.31" x2="68.52" y2="95.67" xlink:href="#New_Gradient_Swatch_copy" style=""></linearGradient><linearGradient id="New_Gradient_Swatch_copy-7" x1="29.82" y1="-21.11" x2="70.79" y2="94.86" xlink:href="#New_Gradient_Swatch_copy" style=""></linearGradient><path id="Layer_1-2" dataName="Layer 1" class="cls-1" d="M3.63,64.48a3.63,3.63,0,0,1-2.57-6.2L58.19,1.15a3.63,3.63,0,0,1,5.13,5.14L6.2,63.42A3.66,3.66,0,0,1,3.63,64.48Z" style="fill: url(#New_Gradient_Swatch_copy);"></path><path id="Layer_1-2" dataName="Layer 1" class="cls-2" d="M16.62,31.7a3.57,3.57,0,0,1-2.49-1A3.62,3.62,0,0,1,14,25.59L20.21,19l17.9-17.9A3.63,3.63,0,0,1,43.24,6.2L25.38,24.06l-6.12,6.5A3.62,3.62,0,0,1,16.62,31.7Z" style="fill: url(#New_Gradient_Swatch_copy-2);"></path><path id="Layer_1-2" dataName="Layer 1" class="cls-3" d="M3.63,84.65a3.63,3.63,0,0,1-2.57-6.2L75.17,4.35A3.63,3.63,0,0,1,80.3,9.48L6.2,83.59A3.62,3.62,0,0,1,3.63,84.65Z" style="fill: url(#New_Gradient_Swatch_copy-3);"></path><path id="Layer_1-2" dataName="Layer 1" class="cls-4" d="M22,86.48a3.63,3.63,0,0,1-2.56-6.19l42-42a3.63,3.63,0,0,1,5.13,5.13l-42,42A3.62,3.62,0,0,1,22,86.48Z" style="fill: url(#New_Gradient_Swatch_copy-4);"></path><path id="Layer_1-2" dataName="Layer 1" class="cls-5" d="M10.12,118.5a3.63,3.63,0,0,1-2.56-6.2L78.8,41.06a3.63,3.63,0,1,1,5.13,5.13L12.69,117.44A3.66,3.66,0,0,1,10.12,118.5Z" style="fill: url(#New_Gradient_Swatch_copy-5);"></path><path id="Layer_1-2" dataName="Layer 1" class="cls-6" d="M28.84,120a3.63,3.63,0,0,1-2.56-6.2L95.81,44.61a3.62,3.62,0,1,1,5.11,5.14L31.4,118.9A3.63,3.63,0,0,1,28.84,120Z" style="fill: url(#New_Gradient_Swatch_copy-6);"></path><path id="Layer_1-2" dataName="Layer 1" class="cls-7" d="M56.42,112.54a3.63,3.63,0,0,1-2.56-6.19L82.43,77.77a3.63,3.63,0,0,1,5.13,5.14L59,111.48A3.62,3.62,0,0,1,56.42,112.54Z" style="fill: url(#New_Gradient_Swatch_copy-7);"></path></svg></g> <g transform="rotate(0 395.85741969827757 295.4104023574829)"><svg y="250.54040342559813" viewBox="4.789999961853027 31.110000610351562 178.28001403808594 89.73999786376953" x="306.7174126792346" height="89.73999786376953" width="178.28001403808594" xmlns="http://www.w3.org/2000/svg" style="overflow: visible;"><g fill="#ffffff" fill-opacity="1" style=""><path d="M60.19 54.44L60.19 54.44Q63.30 54.44 65.33 56.48Q67.37 58.51 67.37 61.74L67.37 61.74L67.37 112.36Q67.37 115.47 65.33 117.56Q63.30 119.66 60.19 119.66L60.19 119.66Q57.08 119.66 55.04 117.56Q53.01 115.47 53.01 112.36L53.01 112.36L53.01 106.49L55.64 107.57Q55.64 109.13 53.96 111.34Q52.29 113.55 49.42 115.71Q46.55 117.86 42.66 119.36Q38.77 120.85 34.22 120.85L34.22 120.85Q25.97 120.85 19.26 116.60Q12.56 112.36 8.68 104.88Q4.79 97.40 4.79 87.71L4.79 87.71Q4.79 77.90 8.68 70.42Q12.56 62.94 19.14 58.69Q25.73 54.44 33.74 54.44L33.74 54.44Q38.89 54.44 43.20 56.00Q47.50 57.55 50.67 59.95Q53.85 62.34 55.58 64.79Q57.32 67.25 57.32 68.92L57.32 68.92L53.01 70.48L53.01 61.74Q53.01 58.63 55.04 56.54Q57.08 54.44 60.19 54.44ZM36.02 107.69L36.02 107.69Q41.28 107.69 45.23 105.06Q49.18 102.43 51.39 97.88Q53.61 93.33 53.61 87.71L53.61 87.71Q53.61 81.96 51.39 77.42Q49.18 72.87 45.23 70.24Q41.28 67.61 36.02 67.61L36.02 67.61Q30.87 67.61 26.92 70.24Q22.97 72.87 20.76 77.42Q18.55 81.96 18.55 87.71L18.55 87.71Q18.55 93.33 20.76 97.88Q22.97 102.43 26.92 105.06Q30.87 107.69 36.02 107.69ZM82.92 119.66L82.92 119.66Q79.81 119.66 77.78 117.56Q75.74 115.47 75.74 112.36L75.74 112.36L75.74 62.94Q75.74 59.83 77.78 57.73Q79.81 55.64 82.92 55.64L82.92 55.64Q86.03 55.64 88.07 57.73Q90.10 59.83 90.10 62.94L90.10 62.94L90.10 74.19L89.26 66.17Q90.58 63.30 92.67 61.08Q94.77 58.87 97.40 57.38Q100.03 55.88 103.02 55.16Q106.02 54.44 109.01 54.44L109.01 54.44Q112.60 54.44 115.05 56.48Q117.50 58.51 117.50 61.26L117.50 61.26Q117.50 65.21 115.47 66.95Q113.43 68.68 111.04 68.68L111.04 68.68Q108.77 68.68 106.91 67.84Q105.06 67.01 102.66 67.01L102.66 67.01Q100.51 67.01 98.30 68.02Q96.08 69.04 94.23 71.20Q92.37 73.35 91.24 76.52Q90.10 79.69 90.10 84.00L90.10 84.00L90.10 112.36Q90.10 115.47 88.07 117.56Q86.03 119.66 82.92 119.66ZM153.64 54.44L153.64 54.44Q162.01 54.44 168.66 58.69Q175.30 62.94 179.18 70.36Q183.07 77.78 183.07 87.59L183.07 87.59Q183.07 97.40 179.18 104.88Q175.30 112.36 168.77 116.60Q162.25 120.85 154.12 120.85L154.12 120.85Q149.33 120.85 145.14 119.30Q140.95 117.74 137.78 115.35Q134.61 112.96 132.88 110.50Q131.14 108.05 131.14 106.37L131.14 106.37L134.85 104.82L134.85 113.55Q134.85 116.66 132.82 118.76Q130.78 120.85 127.67 120.85L127.67 120.85Q124.56 120.85 122.53 118.82Q120.49 116.78 120.49 113.55L120.49 113.55L120.49 38.41Q120.49 35.30 122.53 33.20Q124.56 31.11 127.67 31.11L127.67 31.11Q130.78 31.11 132.82 33.20Q134.85 35.30 134.85 38.41L134.85 38.41L134.85 68.80L132.82 67.73Q132.82 66.17 134.49 63.96Q136.17 61.74 139.04 59.53Q141.91 57.32 145.68 55.88Q149.45 54.44 153.64 54.44ZM151.84 67.61L151.84 67.61Q146.58 67.61 142.63 70.24Q138.68 72.87 136.47 77.36Q134.25 81.84 134.25 87.59L134.25 87.59Q134.25 93.21 136.47 97.82Q138.68 102.43 142.63 105.06Q146.58 107.69 151.84 107.69L151.84 107.69Q157.11 107.69 161.00 105.06Q164.89 102.43 167.10 97.82Q169.31 93.21 169.31 87.59L169.31 87.59Q169.31 81.84 167.10 77.36Q164.89 72.87 161.00 70.24Q157.11 67.61 151.84 67.61Z" transform="translate(0, 0)"></path></g></svg></g></svg>